<svg style="" width="5px" height="5px" version="1.1" xmlns="http://www.w3.org/2000/svg">
<path d="M53.281250 -0.000000 L20.000000 -0.000000 C17.239570 -0.000000 14.635429 0.520828 12.187500 1.562500 C9.791655 2.604172 7.682301 4.036449 5.859375 5.859375 C4.036449 7.682301 2.604172 9.817696 1.562500 12.265625 C0.520828 14.661470 0.000000 17.239570 0.000000 20.000000 L0.000000 53.359375 C0.000000 56.067722 0.520828 58.645821 1.562500 61.093750 C2.604172 63.541679 4.036449 65.664054 5.859375 67.460938 C7.682301 69.257821 9.791655 70.677078 12.187500 71.718750 C14.635429 72.812505 17.239570 73.359375 20.000000 73.359375 L53.281250 73.359375 C56.041680 73.359375 58.645821 72.812505 61.093750 71.718750 C63.489595 70.677078 65.598949 69.257821 67.421875 67.460938 C69.244801 65.664054 70.677078 63.541679 71.718750 61.093750 C72.760422 58.645821 73.281250 56.067722 73.281250 53.359375 L73.281250 20.000000 C73.281250 17.239570 72.760422 14.661470 71.718750 12.265625 C70.677078 9.817696 69.244801 7.682301 67.421875 5.859375 C65.598949 4.036449 63.489595 2.604172 61.093750 1.562500 C58.645821 0.520828 56.041680 -0.000000 53.281250 -0.000000 Z M66.640625 53.359375 C66.640625 57.005227 65.338555 60.130195 62.734375 62.734375 C60.130195 65.338555 56.979185 66.640625 53.281250 66.640625 L20.000000 66.640625 C16.302065 66.640625 13.151055 65.338555 10.546875 62.734375 C7.942695 60.130195 6.640625 57.005227 6.640625 53.359375 L6.640625 20.000000 C6.640625 16.354148 7.942695 13.216159 10.546875 10.585938 C13.151055 7.955716 16.302065 6.640625 20.000000 6.640625 L53.281250 6.640625 C56.979185 6.640625 60.130195 7.955716 62.734375 10.585938 C65.338555 13.216159 66.640625 16.354148 66.640625 20.000000 Z M39.296875 20.000000 C38.463538 19.843749 37.630212 19.765625 36.796875 19.765625 C35.963538 19.765625 35.130212 19.843749 34.296875 20.000000 C32.057280 20.312502 30.000009 21.067702 28.125000 22.265625 C26.249991 23.463548 24.687506 24.921866 23.437500 26.640625 C22.187494 28.359384 21.276045 30.286448 20.703125 32.421875 C20.130205 34.557302 19.999998 36.744780 20.312500 38.984375 C20.625002 41.171886 21.354161 43.216136 22.500000 45.117188 C23.645839 47.018239 25.130199 48.645827 26.953125 50.000000 C28.463549 50.989588 30.052075 51.796872 31.718750 52.421875 C33.385425 53.046878 35.130199 53.359375 36.953125 53.359375 C37.317710 53.359375 37.721352 53.346354 38.164062 53.320312 C38.606773 53.294271 38.984373 53.177084 39.296875 52.968750 C41.484386 52.656248 43.528636 51.927089 45.429688 50.781250 C47.330739 49.635411 48.958327 48.151051 50.312500 46.328125 C51.666673 44.505199 52.591143 42.539073 53.085938 40.429688 C53.580732 38.320302 53.645835 36.171886 53.281250 33.984375 C52.812498 30.338523 51.289075 27.226575 48.710938 24.648438 C46.132800 22.070300 42.994810 20.520836 39.296875 20.000000 Z M45.000000 42.343750 C44.166663 43.333338 43.177089 44.205725 42.031250 44.960938 C40.885411 45.716150 39.635423 46.171874 38.281250 46.328125 C35.624987 46.640627 33.164074 46.002612 30.898438 44.414062 C28.632801 42.825513 27.317710 40.677097 26.953125 37.968750 C26.484373 35.312487 27.096346 32.851574 28.789062 30.585938 C30.481779 28.320301 32.656237 27.005210 35.312500 26.640625 C35.468751 26.640625 35.690103 26.640625 35.976562 26.640625 C36.263022 26.640625 36.484374 26.640625 36.640625 26.640625 C36.796876 26.640625 37.018228 26.640625 37.304688 26.640625 C37.591147 26.640625 37.812499 26.640625 37.968750 26.640625 C40.156261 27.005210 42.005201 27.942701 43.515625 29.453125 C45.026049 30.963549 45.963540 32.812489 46.328125 35.000000 C46.640627 36.354173 46.653647 37.669264 46.367188 38.945312 C46.080728 40.221361 45.625003 41.354162 45.000000 42.343750 Z M52.656250 16.015625 C52.291665 16.328127 52.031251 16.666665 51.875000 17.031250 C51.718749 17.395835 51.640625 17.838539 51.640625 18.359375 C51.640625 18.828127 51.718749 19.244790 51.875000 19.609375 C52.031251 19.973960 52.291665 20.338540 52.656250 20.703125 C52.968752 21.015627 53.346352 21.249999 53.789062 21.406250 C54.231773 21.562501 54.635415 21.640625 55.000000 21.640625 C55.468752 21.640625 55.885415 21.562501 56.250000 21.406250 C56.614585 21.249999 56.979165 21.015627 57.343750 20.703125 C57.656252 20.338540 57.890624 19.934898 58.046875 19.492188 C58.203126 19.049477 58.281250 18.671877 58.281250 18.359375 C58.281250 17.838539 58.203126 17.395835 58.046875 17.031250 C57.890624 16.666665 57.656252 16.328127 57.343750 16.015625 C56.666663 15.338538 55.885421 15.000000 55.000000 15.000000 C54.114579 15.000000 53.333337 15.338538 52.656250 16.015625 Z M76.640625 70.000000" style="fill:white"/>
</svg>